<svg width="133" height="18" viewBox="0 0 133 18" fill="none" xmlns="http://www.w3.org/2000/svg">
<path d="M0 17.4V0.599996H5.16C8.12 0.599996 10.296 1.352 11.688 2.856C13.096 4.36 13.8 6.424 13.8 9.048C13.8 11.624 13.096 13.664 11.688 15.168C10.296 16.656 8.12 17.4 5.16 17.4H0ZM2.016 15.72H5.112C6.744 15.72 8.04 15.456 9 14.928C9.976 14.384 10.672 13.616 11.088 12.624C11.504 11.616 11.712 10.424 11.712 9.048C11.712 7.64 11.504 6.432 11.088 5.424C10.672 4.416 9.976 3.64 9 3.096C8.04 2.552 6.744 2.28 5.112 2.28H2.016V15.72Z" fill="#212529"/>
<path d="M22.4949 17.688C21.3749 17.688 20.3669 17.432 19.4709 16.92C18.5749 16.408 17.8629 15.688 17.3349 14.76C16.8229 13.816 16.5669 12.712 16.5669 11.448C16.5669 10.184 16.8309 9.088 17.3589 8.16C17.8869 7.216 18.5989 6.488 19.4949 5.976C20.4069 5.464 21.4229 5.208 22.5429 5.208C23.6629 5.208 24.6709 5.464 25.5669 5.976C26.4629 6.488 27.1669 7.216 27.6789 8.16C28.2069 9.088 28.4709 10.184 28.4709 11.448C28.4709 12.712 28.2069 13.816 27.6789 14.76C27.1509 15.688 26.4309 16.408 25.5189 16.92C24.6229 17.432 23.6149 17.688 22.4949 17.688ZM22.4949 15.96C23.1829 15.96 23.8229 15.792 24.4149 15.456C25.0069 15.12 25.4869 14.616 25.8549 13.944C26.2229 13.272 26.4069 12.44 26.4069 11.448C26.4069 10.456 26.2229 9.624 25.8549 8.952C25.5029 8.28 25.0309 7.776 24.4389 7.44C23.8469 7.104 23.2149 6.936 22.5429 6.936C21.8549 6.936 21.2149 7.104 20.6229 7.44C20.0309 7.776 19.5509 8.28 19.1829 8.952C18.8149 9.624 18.6309 10.456 18.6309 11.448C18.6309 12.44 18.8149 13.272 19.1829 13.944C19.5509 14.616 20.0229 15.12 20.5989 15.456C21.1909 15.792 21.8229 15.96 22.4949 15.96Z" fill="#212529"/>
<path d="M37.2261 17.688C36.0901 17.688 35.0661 17.432 34.1541 16.92C33.2581 16.392 32.5461 15.664 32.0181 14.736C31.5061 13.792 31.2501 12.696 31.2501 11.448C31.2501 10.2 31.5061 9.112 32.0181 8.184C32.5461 7.24 33.2581 6.512 34.1541 6C35.0661 5.472 36.0901 5.208 37.2261 5.208C38.6341 5.208 39.8181 5.576 40.7781 6.312C41.7541 7.048 42.3701 8.032 42.6261 9.264H40.5621C40.4021 8.528 40.0101 7.96 39.3861 7.56C38.7621 7.144 38.0341 6.936 37.2021 6.936C36.5301 6.936 35.8981 7.104 35.3061 7.44C34.7141 7.776 34.2341 8.28 33.8661 8.952C33.4981 9.624 33.3141 10.456 33.3141 11.448C33.3141 12.44 33.4981 13.272 33.8661 13.944C34.2341 14.616 34.7141 15.128 35.3061 15.48C35.8981 15.816 36.5301 15.984 37.2021 15.984C38.0341 15.984 38.7621 15.784 39.3861 15.384C40.0101 14.968 40.4021 14.384 40.5621 13.632H42.6261C42.3861 14.832 41.7781 15.808 40.8021 16.56C39.8261 17.312 38.6341 17.688 37.2261 17.688Z" fill="#212529"/>
<path d="M50.2974 17.4C49.2094 17.4 48.3534 17.136 47.7294 16.608C47.1054 16.08 46.7934 15.128 46.7934 13.752V7.2H44.7294V5.496H46.7934L47.0574 2.64H48.8094V5.496H52.3134V7.2H48.8094V13.752C48.8094 14.504 48.9614 15.016 49.2654 15.288C49.5694 15.544 50.1054 15.672 50.8734 15.672H52.1214V17.4H50.2974Z" fill="#212529"/>
<path d="M60.4506 17.688C59.3306 17.688 58.3226 17.432 57.4266 16.92C56.5306 16.408 55.8186 15.688 55.2906 14.76C54.7786 13.816 54.5226 12.712 54.5226 11.448C54.5226 10.184 54.7866 9.088 55.3146 8.16C55.8426 7.216 56.5546 6.488 57.4506 5.976C58.3626 5.464 59.3786 5.208 60.4986 5.208C61.6186 5.208 62.6266 5.464 63.5226 5.976C64.4186 6.488 65.1226 7.216 65.6346 8.16C66.1626 9.088 66.4266 10.184 66.4266 11.448C66.4266 12.712 66.1626 13.816 65.6346 14.76C65.1066 15.688 64.3866 16.408 63.4746 16.92C62.5786 17.432 61.5706 17.688 60.4506 17.688ZM60.4506 15.96C61.1386 15.96 61.7786 15.792 62.3706 15.456C62.9626 15.12 63.4426 14.616 63.8106 13.944C64.1786 13.272 64.3626 12.44 64.3626 11.448C64.3626 10.456 64.1786 9.624 63.8106 8.952C63.4586 8.28 62.9866 7.776 62.3946 7.44C61.8026 7.104 61.1706 6.936 60.4986 6.936C59.8106 6.936 59.1706 7.104 58.5786 7.44C57.9866 7.776 57.5066 8.28 57.1386 8.952C56.7706 9.624 56.5866 10.456 56.5866 11.448C56.5866 12.44 56.7706 13.272 57.1386 13.944C57.5066 14.616 57.9786 15.12 58.5546 15.456C59.1466 15.792 59.7786 15.96 60.4506 15.96Z" fill="#212529"/>
<path d="M69.7097 17.4V5.496H71.5337L71.7017 7.776C72.0697 6.992 72.6297 6.368 73.3817 5.904C74.1337 5.44 75.0617 5.208 76.1657 5.208V7.32H75.6137C74.9097 7.32 74.2617 7.448 73.6697 7.704C73.0777 7.944 72.6057 8.36 72.2537 8.952C71.9017 9.544 71.7257 10.36 71.7257 11.4V17.4H69.7097Z" fill="#212529"/>
<path d="M86.4924 17.688C84.7964 17.688 83.3404 17.328 82.1244 16.608C80.9084 15.872 79.9724 14.856 79.3164 13.56C78.6604 12.248 78.3324 10.736 78.3324 9.024C78.3324 7.312 78.6604 5.8 79.3164 4.488C79.9724 3.176 80.9084 2.152 82.1244 1.416C83.3404 0.679996 84.7964 0.311996 86.4924 0.311996C88.5084 0.311996 90.1564 0.815996 91.4364 1.824C92.7324 2.816 93.5404 4.216 93.8604 6.024H90.4764C90.2684 5.112 89.8204 4.4 89.1324 3.888C88.4604 3.36 87.5644 3.096 86.4444 3.096C84.8924 3.096 83.6764 3.624 82.7964 4.68C81.9164 5.736 81.4764 7.184 81.4764 9.024C81.4764 10.864 81.9164 12.312 82.7964 13.368C83.6764 14.408 84.8924 14.928 86.4444 14.928C87.5644 14.928 88.4604 14.688 89.1324 14.208C89.8204 13.712 90.2684 13.032 90.4764 12.168H93.8604C93.5404 13.896 92.7324 15.248 91.4364 16.224C90.1564 17.2 88.5084 17.688 86.4924 17.688Z" fill="#00856F"/>
<path d="M101.092 17.688C100.068 17.688 99.2278 17.528 98.5718 17.208C97.9158 16.872 97.4277 16.432 97.1077 15.888C96.7878 15.344 96.6278 14.744 96.6278 14.088C96.6278 12.984 97.0598 12.088 97.9238 11.4C98.7878 10.712 100.084 10.368 101.812 10.368H104.836V10.08C104.836 9.264 104.604 8.664 104.14 8.28C103.676 7.896 103.1 7.704 102.412 7.704C101.788 7.704 101.244 7.856 100.78 8.16C100.316 8.448 100.028 8.88 99.9157 9.456H96.9157C96.9958 8.592 97.2837 7.84 97.7797 7.2C98.2917 6.56 98.9477 6.072 99.7477 5.736C100.548 5.384 101.444 5.208 102.436 5.208C104.132 5.208 105.468 5.632 106.444 6.48C107.42 7.328 107.908 8.528 107.908 10.08V17.4H105.292L105.004 15.48C104.652 16.12 104.156 16.648 103.516 17.064C102.892 17.48 102.084 17.688 101.092 17.688ZM101.788 15.288C102.668 15.288 103.348 15 103.828 14.424C104.324 13.848 104.636 13.136 104.764 12.288H102.148C101.332 12.288 100.748 12.44 100.396 12.744C100.044 13.032 99.8678 13.392 99.8678 13.824C99.8678 14.288 100.044 14.648 100.396 14.904C100.748 15.16 101.212 15.288 101.788 15.288Z" fill="#00856F"/>
<path d="M111.319 17.4V5.496H114.055L114.343 7.728C114.775 6.96 115.359 6.352 116.095 5.904C116.847 5.44 117.727 5.208 118.735 5.208V8.448H117.871C117.199 8.448 116.599 8.552 116.071 8.76C115.543 8.968 115.127 9.328 114.823 9.84C114.535 10.352 114.391 11.064 114.391 11.976V17.4H111.319Z" fill="#00856F"/>
<path d="M126.888 17.688C125.688 17.688 124.624 17.432 123.696 16.92C122.768 16.408 122.04 15.688 121.512 14.76C120.984 13.832 120.72 12.76 120.72 11.544C120.72 10.312 120.976 9.216 121.488 8.256C122.016 7.296 122.736 6.552 123.648 6.024C124.576 5.48 125.664 5.208 126.912 5.208C128.08 5.208 129.112 5.464 130.008 5.976C130.904 6.488 131.6 7.192 132.096 8.088C132.608 8.968 132.864 9.952 132.864 11.04C132.864 11.216 132.856 11.4 132.84 11.592C132.84 11.784 132.832 11.984 132.816 12.192H123.768C123.832 13.12 124.152 13.848 124.728 14.376C125.32 14.904 126.032 15.168 126.864 15.168C127.488 15.168 128.008 15.032 128.424 14.76C128.856 14.472 129.176 14.104 129.384 13.656H132.504C132.28 14.408 131.904 15.096 131.376 15.72C130.864 16.328 130.224 16.808 129.456 17.16C128.704 17.512 127.848 17.688 126.888 17.688ZM126.912 7.704C126.16 7.704 125.496 7.92 124.92 8.352C124.344 8.768 123.976 9.408 123.816 10.272H129.744C129.696 9.488 129.408 8.864 128.88 8.4C128.352 7.936 127.696 7.704 126.912 7.704Z" fill="#00856F"/>
</svg>
