<svg width="133" height="19" viewBox="0 0 133 19" fill="none" xmlns="http://www.w3.org/2000/svg">
<path d="M0 17.9V1.1H5.16C8.12 1.1 10.296 1.852 11.688 3.356C13.096 4.86 13.8 6.924 13.8 9.548C13.8 12.124 13.096 14.164 11.688 15.668C10.296 17.156 8.12 17.9 5.16 17.9H0ZM2.016 16.22H5.112C6.744 16.22 8.04 15.956 9 15.428C9.976 14.884 10.672 14.116 11.088 13.124C11.504 12.116 11.712 10.924 11.712 9.548C11.712 8.14 11.504 6.932 11.088 5.924C10.672 4.916 9.976 4.14 9 3.596C8.04 3.052 6.744 2.78 5.112 2.78H2.016V16.22Z" fill="#212529"/>
<path d="M22.4949 18.188C21.3749 18.188 20.3669 17.932 19.4709 17.42C18.5749 16.908 17.8629 16.188 17.3349 15.26C16.8229 14.316 16.5669 13.212 16.5669 11.948C16.5669 10.684 16.8309 9.588 17.3589 8.66C17.8869 7.716 18.5989 6.988 19.4949 6.476C20.4069 5.964 21.4229 5.708 22.5429 5.708C23.6629 5.708 24.6709 5.964 25.5669 6.476C26.4629 6.988 27.1669 7.716 27.6789 8.66C28.2069 9.588 28.4709 10.684 28.4709 11.948C28.4709 13.212 28.2069 14.316 27.6789 15.26C27.1509 16.188 26.4309 16.908 25.5189 17.42C24.6229 17.932 23.6149 18.188 22.4949 18.188ZM22.4949 16.46C23.1829 16.46 23.8229 16.292 24.4149 15.956C25.0069 15.62 25.4869 15.116 25.8549 14.444C26.2229 13.772 26.4069 12.94 26.4069 11.948C26.4069 10.956 26.2229 10.124 25.8549 9.452C25.5029 8.78 25.0309 8.276 24.4389 7.94C23.8469 7.604 23.2149 7.436 22.5429 7.436C21.8549 7.436 21.2149 7.604 20.6229 7.94C20.0309 8.276 19.5509 8.78 19.1829 9.452C18.8149 10.124 18.6309 10.956 18.6309 11.948C18.6309 12.94 18.8149 13.772 19.1829 14.444C19.5509 15.116 20.0229 15.62 20.5989 15.956C21.1909 16.292 21.8229 16.46 22.4949 16.46Z" fill="#212529"/>
<path d="M37.2261 18.188C36.0901 18.188 35.0661 17.932 34.1541 17.42C33.2581 16.892 32.5461 16.164 32.0181 15.236C31.5061 14.292 31.2501 13.196 31.2501 11.948C31.2501 10.7 31.5061 9.612 32.0181 8.684C32.5461 7.74 33.2581 7.012 34.1541 6.5C35.0661 5.972 36.0901 5.708 37.2261 5.708C38.6341 5.708 39.8181 6.076 40.7781 6.812C41.7541 7.548 42.3701 8.532 42.6261 9.764H40.5621C40.4021 9.028 40.0101 8.46 39.3861 8.06C38.7621 7.644 38.0341 7.436 37.2021 7.436C36.5301 7.436 35.8981 7.604 35.3061 7.94C34.7141 8.276 34.2341 8.78 33.8661 9.452C33.4981 10.124 33.3141 10.956 33.3141 11.948C33.3141 12.94 33.4981 13.772 33.8661 14.444C34.2341 15.116 34.7141 15.628 35.3061 15.98C35.8981 16.316 36.5301 16.484 37.2021 16.484C38.0341 16.484 38.7621 16.284 39.3861 15.884C40.0101 15.468 40.4021 14.884 40.5621 14.132H42.6261C42.3861 15.332 41.7781 16.308 40.8021 17.06C39.8261 17.812 38.6341 18.188 37.2261 18.188Z" fill="#212529"/>
<path d="M50.2974 17.9C49.2094 17.9 48.3534 17.636 47.7294 17.108C47.1054 16.58 46.7934 15.628 46.7934 14.252V7.7H44.7294V5.996H46.7934L47.0574 3.14H48.8094V5.996H52.3134V7.7H48.8094V14.252C48.8094 15.004 48.9614 15.516 49.2654 15.788C49.5694 16.044 50.1054 16.172 50.8734 16.172H52.1214V17.9H50.2974Z" fill="#212529"/>
<path d="M60.4506 18.188C59.3306 18.188 58.3226 17.932 57.4266 17.42C56.5306 16.908 55.8186 16.188 55.2906 15.26C54.7786 14.316 54.5226 13.212 54.5226 11.948C54.5226 10.684 54.7866 9.588 55.3146 8.66C55.8426 7.716 56.5546 6.988 57.4506 6.476C58.3626 5.964 59.3786 5.708 60.4986 5.708C61.6186 5.708 62.6266 5.964 63.5226 6.476C64.4186 6.988 65.1226 7.716 65.6346 8.66C66.1626 9.588 66.4266 10.684 66.4266 11.948C66.4266 13.212 66.1626 14.316 65.6346 15.26C65.1066 16.188 64.3866 16.908 63.4746 17.42C62.5786 17.932 61.5706 18.188 60.4506 18.188ZM60.4506 16.46C61.1386 16.46 61.7786 16.292 62.3706 15.956C62.9626 15.62 63.4426 15.116 63.8106 14.444C64.1786 13.772 64.3626 12.94 64.3626 11.948C64.3626 10.956 64.1786 10.124 63.8106 9.452C63.4586 8.78 62.9866 8.276 62.3946 7.94C61.8026 7.604 61.1706 7.436 60.4986 7.436C59.8106 7.436 59.1706 7.604 58.5786 7.94C57.9866 8.276 57.5066 8.78 57.1386 9.452C56.7706 10.124 56.5866 10.956 56.5866 11.948C56.5866 12.94 56.7706 13.772 57.1386 14.444C57.5066 15.116 57.9786 15.62 58.5546 15.956C59.1466 16.292 59.7786 16.46 60.4506 16.46Z" fill="#212529"/>
<path d="M69.7097 17.9V5.996H71.5337L71.7017 8.276C72.0697 7.492 72.6297 6.868 73.3817 6.404C74.1337 5.94 75.0617 5.708 76.1657 5.708V7.82H75.6137C74.9097 7.82 74.2617 7.948 73.6697 8.204C73.0777 8.444 72.6057 8.86 72.2537 9.452C71.9017 10.044 71.7257 10.86 71.7257 11.9V17.9H69.7097Z" fill="#212529"/>
<path d="M86.4924 18.188C84.7964 18.188 83.3404 17.828 82.1244 17.108C80.9084 16.372 79.9724 15.356 79.3164 14.06C78.6604 12.748 78.3324 11.236 78.3324 9.524C78.3324 7.812 78.6604 6.3 79.3164 4.988C79.9724 3.676 80.9084 2.652 82.1244 1.916C83.3404 1.18 84.7964 0.811996 86.4924 0.811996C88.5084 0.811996 90.1564 1.316 91.4364 2.324C92.7324 3.316 93.5404 4.716 93.8604 6.524H90.4764C90.2684 5.612 89.8204 4.9 89.1324 4.388C88.4604 3.86 87.5644 3.596 86.4444 3.596C84.8924 3.596 83.6764 4.124 82.7964 5.18C81.9164 6.236 81.4764 7.684 81.4764 9.524C81.4764 11.364 81.9164 12.812 82.7964 13.868C83.6764 14.908 84.8924 15.428 86.4444 15.428C87.5644 15.428 88.4604 15.188 89.1324 14.708C89.8204 14.212 90.2684 13.532 90.4764 12.668H93.8604C93.5404 14.396 92.7324 15.748 91.4364 16.724C90.1564 17.7 88.5084 18.188 86.4924 18.188Z" fill="#00856F"/>
<path d="M101.092 18.188C100.068 18.188 99.2278 18.028 98.5718 17.708C97.9158 17.372 97.4277 16.932 97.1077 16.388C96.7878 15.844 96.6278 15.244 96.6278 14.588C96.6278 13.484 97.0598 12.588 97.9238 11.9C98.7878 11.212 100.084 10.868 101.812 10.868H104.836V10.58C104.836 9.764 104.604 9.164 104.14 8.78C103.676 8.396 103.1 8.204 102.412 8.204C101.788 8.204 101.244 8.356 100.78 8.66C100.316 8.948 100.028 9.38 99.9157 9.956H96.9157C96.9958 9.092 97.2837 8.34 97.7797 7.7C98.2917 7.06 98.9477 6.572 99.7477 6.236C100.548 5.884 101.444 5.708 102.436 5.708C104.132 5.708 105.468 6.132 106.444 6.98C107.42 7.828 107.908 9.028 107.908 10.58V17.9H105.292L105.004 15.98C104.652 16.62 104.156 17.148 103.516 17.564C102.892 17.98 102.084 18.188 101.092 18.188ZM101.788 15.788C102.668 15.788 103.348 15.5 103.828 14.924C104.324 14.348 104.636 13.636 104.764 12.788H102.148C101.332 12.788 100.748 12.94 100.396 13.244C100.044 13.532 99.8678 13.892 99.8678 14.324C99.8678 14.788 100.044 15.148 100.396 15.404C100.748 15.66 101.212 15.788 101.788 15.788Z" fill="#00856F"/>
<path d="M111.319 17.9V5.996H114.055L114.343 8.228C114.775 7.46 115.359 6.852 116.095 6.404C116.847 5.94 117.727 5.708 118.735 5.708V8.948H117.871C117.199 8.948 116.599 9.052 116.071 9.26C115.543 9.468 115.127 9.828 114.823 10.34C114.535 10.852 114.391 11.564 114.391 12.476V17.9H111.319Z" fill="#00856F"/>
<path d="M126.888 18.188C125.688 18.188 124.624 17.932 123.696 17.42C122.768 16.908 122.04 16.188 121.512 15.26C120.984 14.332 120.72 13.26 120.72 12.044C120.72 10.812 120.976 9.716 121.488 8.756C122.016 7.796 122.736 7.052 123.648 6.524C124.576 5.98 125.664 5.708 126.912 5.708C128.08 5.708 129.112 5.964 130.008 6.476C130.904 6.988 131.6 7.692 132.096 8.588C132.608 9.468 132.864 10.452 132.864 11.54C132.864 11.716 132.856 11.9 132.84 12.092C132.84 12.284 132.832 12.484 132.816 12.692H123.768C123.832 13.62 124.152 14.348 124.728 14.876C125.32 15.404 126.032 15.668 126.864 15.668C127.488 15.668 128.008 15.532 128.424 15.26C128.856 14.972 129.176 14.604 129.384 14.156H132.504C132.28 14.908 131.904 15.596 131.376 16.22C130.864 16.828 130.224 17.308 129.456 17.66C128.704 18.012 127.848 18.188 126.888 18.188ZM126.912 8.204C126.16 8.204 125.496 8.42 124.92 8.852C124.344 9.268 123.976 9.908 123.816 10.772H129.744C129.696 9.988 129.408 9.364 128.88 8.9C128.352 8.436 127.696 8.204 126.912 8.204Z" fill="#00856F"/>
</svg>
